<svg width="390" height="424" viewBox="0 0 390 424" fill="none" xmlns="http://www.w3.org/2000/svg">
<g opacity="0.4">
<path opacity="0.2" d="M120.173 445.751L121.867 446.288C230.93 480.545 311.126 481.036 330.73 471.876C351.245 462.664 395.722 395.498 430.3 286.416C464.878 177.335 467.218 96.8113 455.734 77.4564C445.01 58.6818 378.89 12.7922 270.294 -21.9472L268.601 -22.484C159.538 -56.7411 79.3417 -57.2327 59.7381 -48.0717C39.208 -38.8892 -5.35983 28.5635 -39.8472 137.358C-74.3345 246.153 -76.7649 326.963 -65.274 346.296C-54.6189 365.364 11.2149 411.163 120.187 445.707L120.173 445.751Z" fill="#022C77"/>
<path opacity="0.2" d="M109.41 479.287L111.347 479.901C236.051 519.071 327.748 519.633 350.163 509.158C373.62 498.626 424.475 421.827 464.012 297.102C503.549 172.377 506.224 80.306 493.094 58.1753C480.832 36.7082 405.23 -15.7624 281.06 -55.4838L279.124 -56.0976C154.42 -95.2675 62.7229 -95.8296 40.308 -85.3549C16.8336 -74.8555 -34.1258 2.27064 -73.5589 126.668C-112.992 251.065 -115.771 343.464 -102.632 365.57C-90.4491 387.373 -15.174 439.74 109.426 479.237L109.41 479.287Z" fill="#00379B"/>
<path opacity="0.4" d="M129.563 416.763L131.046 417.233C226.591 447.202 296.837 447.606 314.006 439.574C331.973 431.499 370.909 372.65 401.16 277.09C431.41 181.53 433.432 110.995 423.366 94.0455C413.966 77.6039 356.034 37.4302 260.899 7.0378L259.416 6.56818C163.872 -23.4015 93.6249 -23.8047 76.4565 -15.7736C58.4766 -7.72324 19.461 51.3763 -10.7104 146.686C-40.8819 241.995 -42.9831 312.78 -32.9112 329.711C-23.5714 346.409 34.1104 386.504 129.575 416.724L129.563 416.763Z" fill="#022C77"/>
<path opacity="0.6" d="M160.173 395.566L161.502 395.815C247.091 411.6 307.739 404.542 321.704 395.804C336.353 386.943 363.742 332.067 379.767 246.434C395.793 160.801 390.102 99.7352 379.631 86.1729C369.788 72.9789 315.572 44.4261 230.292 28.2338L228.962 27.985C143.373 12.2005 82.7255 19.2577 68.7602 27.9963C54.0967 36.8369 26.6662 91.9374 10.6829 177.345C-5.30043 262.753 0.348432 324.044 10.8226 337.589C20.6407 351.012 74.6319 379.522 160.179 395.532L160.173 395.566Z" fill="#022C77"/>
<path opacity="0.8" d="M179.61 369.916L180.753 370.025C254.347 376.836 305.102 366.234 316.246 357.777C327.959 349.163 346.931 300.659 353.943 227.009C360.955 153.36 351.476 102.147 341.584 91.4765C332.252 81.0694 284.217 61.0622 210.852 53.8822L209.709 53.7733C136.115 46.9618 85.3602 57.5635 74.2164 66.0212C62.4899 74.6185 43.4995 123.316 36.5059 196.772C29.5124 270.228 38.9722 321.635 48.8656 332.29C58.1948 342.892 106.037 362.881 179.613 369.886L179.61 369.916Z" fill="#022C77"/>
<path d="M172.245 326.373L173.073 326.536C226.422 336.901 264.332 332.855 273.104 327.482C282.304 322.036 299.731 287.935 310.247 234.561C320.763 181.187 317.572 143.023 311.115 134.493C305.048 126.196 271.365 108.045 218.212 97.427L217.383 97.2638C164.035 86.8988 126.125 90.9446 117.353 96.3179C108.144 101.751 90.6891 135.993 80.201 189.226C69.713 242.46 72.8757 280.764 79.3352 289.284C85.3858 297.723 118.928 315.846 172.249 326.351L172.245 326.373Z" fill="#012059"/>
</g>
</svg>
